<svg id="visual" viewBox="0 0 1920 1080" width="1920" height="1080" xmlns="http://www.w3.org/2000/svg" xmlns:xlink="http://www.w3.org/1999/xlink" version="1.1"><rect x="0" y="0" width="1920" height="1080" fill="#ffffff"></rect><path d="M0 314L40 304.5C80 295 160 276 240 269.5C320 263 400 269 480 285.5C560 302 640 329 720 355.3C800 381.7 880 407.3 960 393.7C1040 380 1120 327 1200 314.3C1280 301.7 1360 329.3 1440 319.5C1520 309.7 1600 262.3 1680 245.8C1760 229.3 1840 243.7 1880 250.8L1920 258L1920 1081L1880 1081C1840 1081 1760 1081 1680 1081C1600 1081 1520 1081 1440 1081C1360 1081 1280 1081 1200 1081C1120 1081 1040 1081 960 1081C880 1081 800 1081 720 1081C640 1081 560 1081 480 1081C400 1081 320 1081 240 1081C160 1081 80 1081 40 1081L0 1081Z" fill="#b4d2ff"></path><path d="M0 348L40 349.7C80 351.3 160 354.7 240 356.5C320 358.3 400 358.7 480 379.2C560 399.7 640 440.3 720 449.2C800 458 880 435 960 428.3C1040 421.7 1120 431.3 1200 433.3C1280 435.3 1360 429.7 1440 440.7C1520 451.7 1600 479.3 1680 480C1760 480.7 1840 454.3 1880 441.2L1920 428L1920 1081L1880 1081C1840 1081 1760 1081 1680 1081C1600 1081 1520 1081 1440 1081C1360 1081 1280 1081 1200 1081C1120 1081 1040 1081 960 1081C880 1081 800 1081 720 1081C640 1081 560 1081 480 1081C400 1081 320 1081 240 1081C160 1081 80 1081 40 1081L0 1081Z" fill="#a1c6ff"></path><path d="M0 443L40 459.8C80 476.7 160 510.3 240 530.5C320 550.7 400 557.3 480 553.2C560 549 640 534 720 506.5C800 479 880 439 960 449.2C1040 459.3 1120 519.7 1200 540.3C1280 561 1360 542 1440 529.8C1520 517.7 1600 512.3 1680 509.5C1760 506.7 1840 506.3 1880 506.2L1920 506L1920 1081L1880 1081C1840 1081 1760 1081 1680 1081C1600 1081 1520 1081 1440 1081C1360 1081 1280 1081 1200 1081C1120 1081 1040 1081 960 1081C880 1081 800 1081 720 1081C640 1081 560 1081 480 1081C400 1081 320 1081 240 1081C160 1081 80 1081 40 1081L0 1081Z" fill="#8fbaff"></path><path d="M0 563L40 574C80 585 160 607 240 622.8C320 638.7 400 648.3 480 630.3C560 612.3 640 566.7 720 535.2C800 503.7 880 486.3 960 490.2C1040 494 1120 519 1200 550.8C1280 582.7 1360 621.3 1440 618.5C1520 615.7 1600 571.3 1680 568.8C1760 566.3 1840 605.7 1880 625.3L1920 645L1920 1081L1880 1081C1840 1081 1760 1081 1680 1081C1600 1081 1520 1081 1440 1081C1360 1081 1280 1081 1200 1081C1120 1081 1040 1081 960 1081C880 1081 800 1081 720 1081C640 1081 560 1081 480 1081C400 1081 320 1081 240 1081C160 1081 80 1081 40 1081L0 1081Z" fill="#7daeff"></path><path d="M0 617L40 622.7C80 628.3 160 639.7 240 658.8C320 678 400 705 480 695.8C560 686.7 640 641.3 720 618.3C800 595.3 880 594.7 960 605.3C1040 616 1120 638 1200 636.3C1280 634.7 1360 609.3 1440 613.2C1520 617 1600 650 1680 653.3C1760 656.7 1840 630.3 1880 617.2L1920 604L1920 1081L1880 1081C1840 1081 1760 1081 1680 1081C1600 1081 1520 1081 1440 1081C1360 1081 1280 1081 1200 1081C1120 1081 1040 1081 960 1081C880 1081 800 1081 720 1081C640 1081 560 1081 480 1081C400 1081 320 1081 240 1081C160 1081 80 1081 40 1081L0 1081Z" fill="#6aa2ff"></path><path d="M0 655L40 657.7C80 660.3 160 665.7 240 688.3C320 711 400 751 480 762.7C560 774.3 640 757.7 720 755.3C800 753 880 765 960 751C1040 737 1120 697 1200 681.5C1280 666 1360 675 1440 681.3C1520 687.7 1600 691.3 1680 709.7C1760 728 1840 761 1880 777.5L1920 794L1920 1081L1880 1081C1840 1081 1760 1081 1680 1081C1600 1081 1520 1081 1440 1081C1360 1081 1280 1081 1200 1081C1120 1081 1040 1081 960 1081C880 1081 800 1081 720 1081C640 1081 560 1081 480 1081C400 1081 320 1081 240 1081C160 1081 80 1081 40 1081L0 1081Z" fill="#5795ff"></path><path d="M0 794L40 801.8C80 809.7 160 825.3 240 827.2C320 829 400 817 480 821.5C560 826 640 847 720 854.7C800 862.3 880 856.7 960 856.3C1040 856 1120 861 1200 854.5C1280 848 1360 830 1440 825.5C1520 821 1600 830 1680 835.7C1760 841.3 1840 843.7 1880 844.8L1920 846L1920 1081L1880 1081C1840 1081 1760 1081 1680 1081C1600 1081 1520 1081 1440 1081C1360 1081 1280 1081 1200 1081C1120 1081 1040 1081 960 1081C880 1081 800 1081 720 1081C640 1081 560 1081 480 1081C400 1081 320 1081 240 1081C160 1081 80 1081 40 1081L0 1081Z" fill="#4389ff"></path><path d="M0 925L40 913.3C80 901.7 160 878.3 240 867.5C320 856.7 400 858.3 480 867.2C560 876 640 892 720 901.5C800 911 880 914 960 919.2C1040 924.3 1120 931.7 1200 932C1280 932.3 1360 925.7 1440 918.2C1520 910.7 1600 902.3 1680 890.3C1760 878.3 1840 862.7 1880 854.8L1920 847L1920 1081L1880 1081C1840 1081 1760 1081 1680 1081C1600 1081 1520 1081 1440 1081C1360 1081 1280 1081 1200 1081C1120 1081 1040 1081 960 1081C880 1081 800 1081 720 1081C640 1081 560 1081 480 1081C400 1081 320 1081 240 1081C160 1081 80 1081 40 1081L0 1081Z" fill="#2d7cff"></path><path d="M0 985L40 976.3C80 967.7 160 950.3 240 943.3C320 936.3 400 939.7 480 943.7C560 947.7 640 952.3 720 961.3C800 970.3 880 983.7 960 982.3C1040 981 1120 965 1200 956.7C1280 948.3 1360 947.7 1440 946C1520 944.3 1600 941.7 1680 946.3C1760 951 1840 963 1880 969L1920 975L1920 1081L1880 1081C1840 1081 1760 1081 1680 1081C1600 1081 1520 1081 1440 1081C1360 1081 1280 1081 1200 1081C1120 1081 1040 1081 960 1081C880 1081 800 1081 720 1081C640 1081 560 1081 480 1081C400 1081 320 1081 240 1081C160 1081 80 1081 40 1081L0 1081Z" fill="#0d6efd"></path></svg>