<svg id="visual" viewBox="0 0 900 600" width="900" height="600" xmlns="http://www.w3.org/2000/svg" xmlns:xlink="http://www.w3.org/1999/xlink" version="1.1"><rect x="0" y="0" width="900" height="600" fill="#ffffff"></rect><path d="M0 191L15 185.8C30 180.7 60 170.3 90 162.3C120 154.3 150 148.7 180 159.2C210 169.7 240 196.3 270 194.8C300 193.3 330 163.7 360 155.7C390 147.7 420 161.3 450 162.3C480 163.3 510 151.7 540 148.2C570 144.7 600 149.3 630 149.8C660 150.3 690 146.7 720 149C750 151.3 780 159.7 810 165.7C840 171.7 870 175.3 885 177.2L900 179L900 601L885 601C870 601 840 601 810 601C780 601 750 601 720 601C690 601 660 601 630 601C600 601 570 601 540 601C510 601 480 601 450 601C420 601 390 601 360 601C330 601 300 601 270 601C240 601 210 601 180 601C150 601 120 601 90 601C60 601 30 601 15 601L0 601Z" fill="#007bff"></path><path d="M0 235L15 228.2C30 221.3 60 207.7 90 198.5C120 189.3 150 184.7 180 191.5C210 198.3 240 216.7 270 219.5C300 222.3 330 209.7 360 209.5C390 209.3 420 221.7 450 218C480 214.3 510 194.7 540 190.8C570 187 600 199 630 208.3C660 217.7 690 224.3 720 231.2C750 238 780 245 810 244.8C840 244.7 870 237.3 885 233.7L900 230L900 601L885 601C870 601 840 601 810 601C780 601 750 601 720 601C690 601 660 601 630 601C600 601 570 601 540 601C510 601 480 601 450 601C420 601 390 601 360 601C330 601 300 601 270 601C240 601 210 601 180 601C150 601 120 601 90 601C60 601 30 601 15 601L0 601Z" fill="#2287ff"></path><path d="M0 283L15 280C30 277 60 271 90 271.5C120 272 150 279 180 277.7C210 276.3 240 266.7 270 262.3C300 258 330 259 360 258C390 257 420 254 450 260.8C480 267.7 510 284.3 540 290.5C570 296.7 600 292.3 630 285.7C660 279 690 270 720 272.3C750 274.7 780 288.3 810 287.7C840 287 870 272 885 264.5L900 257L900 601L885 601C870 601 840 601 810 601C780 601 750 601 720 601C690 601 660 601 630 601C600 601 570 601 540 601C510 601 480 601 450 601C420 601 390 601 360 601C330 601 300 601 270 601C240 601 210 601 180 601C150 601 120 601 90 601C60 601 30 601 15 601L0 601Z" fill="#3992ff"></path><path d="M0 296L15 301.5C30 307 60 318 90 322.5C120 327 150 325 180 315.2C210 305.3 240 287.7 270 283.2C300 278.7 330 287.3 360 295.8C390 304.3 420 312.7 450 318.8C480 325 510 329 540 329.2C570 329.3 600 325.7 630 317.3C660 309 690 296 720 292.5C750 289 780 295 810 302.2C840 309.3 870 317.7 885 321.8L900 326L900 601L885 601C870 601 840 601 810 601C780 601 750 601 720 601C690 601 660 601 630 601C600 601 570 601 540 601C510 601 480 601 450 601C420 601 390 601 360 601C330 601 300 601 270 601C240 601 210 601 180 601C150 601 120 601 90 601C60 601 30 601 15 601L0 601Z" fill="#4c9dff"></path><path d="M0 333L15 338.2C30 343.3 60 353.7 90 351.5C120 349.3 150 334.7 180 327.7C210 320.7 240 321.3 270 320.2C300 319 330 316 360 321.2C390 326.3 420 339.7 450 349.2C480 358.7 510 364.3 540 358.2C570 352 600 334 630 326.8C660 319.7 690 323.3 720 332.5C750 341.7 780 356.3 810 357.2C840 358 870 345 885 338.5L900 332L900 601L885 601C870 601 840 601 810 601C780 601 750 601 720 601C690 601 660 601 630 601C600 601 570 601 540 601C510 601 480 601 450 601C420 601 390 601 360 601C330 601 300 601 270 601C240 601 210 601 180 601C150 601 120 601 90 601C60 601 30 601 15 601L0 601Z" fill="#5fa8ff"></path><path d="M0 406L15 397.5C30 389 60 372 90 364C120 356 150 357 180 360.7C210 364.3 240 370.7 270 370.5C300 370.3 330 363.7 360 367.3C390 371 420 385 450 386.7C480 388.3 510 377.7 540 379.8C570 382 600 397 630 401.8C660 406.7 690 401.3 720 399.2C750 397 780 398 810 393.5C840 389 870 379 885 374L900 369L900 601L885 601C870 601 840 601 810 601C780 601 750 601 720 601C690 601 660 601 630 601C600 601 570 601 540 601C510 601 480 601 450 601C420 601 390 601 360 601C330 601 300 601 270 601C240 601 210 601 180 601C150 601 120 601 90 601C60 601 30 601 15 601L0 601Z" fill="#71b2ff"></path><path d="M0 400L15 408C30 416 60 432 90 434.7C120 437.3 150 426.7 180 425.7C210 424.7 240 433.3 270 438C300 442.7 330 443.3 360 440.3C390 437.3 420 430.7 450 430.2C480 429.7 510 435.3 540 437.8C570 440.3 600 439.7 630 438.3C660 437 690 435 720 436C750 437 780 441 810 434.8C840 428.7 870 412.3 885 404.2L900 396L900 601L885 601C870 601 840 601 810 601C780 601 750 601 720 601C690 601 660 601 630 601C600 601 570 601 540 601C510 601 480 601 450 601C420 601 390 601 360 601C330 601 300 601 270 601C240 601 210 601 180 601C150 601 120 601 90 601C60 601 30 601 15 601L0 601Z" fill="#83bcff"></path><path d="M0 454L15 453.5C30 453 60 452 90 452.3C120 452.7 150 454.3 180 455C210 455.7 240 455.3 270 457C300 458.7 330 462.3 360 460.8C390 459.3 420 452.7 450 453.2C480 453.7 510 461.3 540 468.2C570 475 600 481 630 476.5C660 472 690 457 720 449C750 441 780 440 810 440.8C840 441.7 870 444.3 885 445.7L900 447L900 601L885 601C870 601 840 601 810 601C780 601 750 601 720 601C690 601 660 601 630 601C600 601 570 601 540 601C510 601 480 601 450 601C420 601 390 601 360 601C330 601 300 601 270 601C240 601 210 601 180 601C150 601 120 601 90 601C60 601 30 601 15 601L0 601Z" fill="#94c6ff"></path><path d="M0 499L15 500.3C30 501.7 60 504.3 90 508.3C120 512.3 150 517.7 180 514C210 510.3 240 497.7 270 496.2C300 494.7 330 504.3 360 508.5C390 512.7 420 511.3 450 508.7C480 506 510 502 540 499.5C570 497 600 496 630 497.5C660 499 690 503 720 506.2C750 509.3 780 511.7 810 508.2C840 504.7 870 495.3 885 490.7L900 486L900 601L885 601C870 601 840 601 810 601C780 601 750 601 720 601C690 601 660 601 630 601C600 601 570 601 540 601C510 601 480 601 450 601C420 601 390 601 360 601C330 601 300 601 270 601C240 601 210 601 180 601C150 601 120 601 90 601C60 601 30 601 15 601L0 601Z" fill="#a5d0ff"></path><path d="M0 535L15 536.5C30 538 60 541 90 544.8C120 548.7 150 553.3 180 553.8C210 554.3 240 550.7 270 547.7C300 544.7 330 542.3 360 540.7C390 539 420 538 450 541C480 544 510 551 540 553.5C570 556 600 554 630 554.2C660 554.3 690 556.7 720 554.2C750 551.7 780 544.3 810 544C840 543.7 870 550.3 885 553.7L900 557L900 601L885 601C870 601 840 601 810 601C780 601 750 601 720 601C690 601 660 601 630 601C600 601 570 601 540 601C510 601 480 601 450 601C420 601 390 601 360 601C330 601 300 601 270 601C240 601 210 601 180 601C150 601 120 601 90 601C60 601 30 601 15 601L0 601Z" fill="#b7daff"></path></svg>