<svg id="visual" viewBox="0 0 1920 1080" width="1920" height="1080" xmlns="http://www.w3.org/2000/svg" xmlns:xlink="http://www.w3.org/1999/xlink" version="1.1"><rect x="0" y="0" width="1920" height="1080" fill="#ffffff"></rect><path d="M0 316L40 314.3C80 312.7 160 309.3 240 331.2C320 353 400 400 480 404C560 408 640 369 720 344.5C800 320 880 310 960 328.8C1040 347.7 1120 395.3 1200 425C1280 454.7 1360 466.3 1440 471C1520 475.7 1600 473.3 1680 445.3C1760 417.3 1840 363.7 1880 336.8L1920 310L1920 1081L1880 1081C1840 1081 1760 1081 1680 1081C1600 1081 1520 1081 1440 1081C1360 1081 1280 1081 1200 1081C1120 1081 1040 1081 960 1081C880 1081 800 1081 720 1081C640 1081 560 1081 480 1081C400 1081 320 1081 240 1081C160 1081 80 1081 40 1081L0 1081Z" fill="#0d6efd"></path><path d="M0 279L40 299.8C80 320.7 160 362.3 240 359.5C320 356.7 400 309.3 480 319C560 328.7 640 395.3 720 395.3C800 395.3 880 328.7 960 324.2C1040 319.7 1120 377.3 1200 378.7C1280 380 1360 325 1440 330.5C1520 336 1600 402 1680 415.5C1760 429 1840 390 1880 370.5L1920 351L1920 1081L1880 1081C1840 1081 1760 1081 1680 1081C1600 1081 1520 1081 1440 1081C1360 1081 1280 1081 1200 1081C1120 1081 1040 1081 960 1081C880 1081 800 1081 720 1081C640 1081 560 1081 480 1081C400 1081 320 1081 240 1081C160 1081 80 1081 40 1081L0 1081Z" fill="#2d7cff"></path><path d="M0 548L40 522.2C80 496.3 160 444.7 240 440C320 435.3 400 477.7 480 471.3C560 465 640 410 720 391.5C800 373 880 391 960 429.2C1040 467.3 1120 525.7 1200 556.3C1280 587 1360 590 1440 574.2C1520 558.3 1600 523.7 1680 511.5C1760 499.3 1840 509.7 1880 514.8L1920 520L1920 1081L1880 1081C1840 1081 1760 1081 1680 1081C1600 1081 1520 1081 1440 1081C1360 1081 1280 1081 1200 1081C1120 1081 1040 1081 960 1081C880 1081 800 1081 720 1081C640 1081 560 1081 480 1081C400 1081 320 1081 240 1081C160 1081 80 1081 40 1081L0 1081Z" fill="#4389ff"></path><path d="M0 446L40 468.5C80 491 160 536 240 560.7C320 585.3 400 589.7 480 570.5C560 551.3 640 508.7 720 517C800 525.3 880 584.7 960 598.2C1040 611.7 1120 579.3 1200 549.3C1280 519.3 1360 491.7 1440 475.5C1520 459.3 1600 454.7 1680 474.7C1760 494.7 1840 539.3 1880 561.7L1920 584L1920 1081L1880 1081C1840 1081 1760 1081 1680 1081C1600 1081 1520 1081 1440 1081C1360 1081 1280 1081 1200 1081C1120 1081 1040 1081 960 1081C880 1081 800 1081 720 1081C640 1081 560 1081 480 1081C400 1081 320 1081 240 1081C160 1081 80 1081 40 1081L0 1081Z" fill="#5795ff"></path><path d="M0 582L40 595.2C80 608.3 160 634.7 240 631.5C320 628.3 400 595.7 480 595.3C560 595 640 627 720 625C800 623 880 587 960 568.8C1040 550.7 1120 550.3 1200 548.8C1280 547.3 1360 544.7 1440 555.8C1520 567 1600 592 1680 609.8C1760 627.7 1840 638.3 1880 643.7L1920 649L1920 1081L1880 1081C1840 1081 1760 1081 1680 1081C1600 1081 1520 1081 1440 1081C1360 1081 1280 1081 1200 1081C1120 1081 1040 1081 960 1081C880 1081 800 1081 720 1081C640 1081 560 1081 480 1081C400 1081 320 1081 240 1081C160 1081 80 1081 40 1081L0 1081Z" fill="#6aa2ff"></path><path d="M0 690L40 711.5C80 733 160 776 240 792C320 808 400 797 480 783.3C560 769.7 640 753.3 720 749.7C800 746 880 755 960 762.5C1040 770 1120 776 1200 764.2C1280 752.3 1360 722.7 1440 714.5C1520 706.3 1600 719.7 1680 715.5C1760 711.3 1840 689.7 1880 678.8L1920 668L1920 1081L1880 1081C1840 1081 1760 1081 1680 1081C1600 1081 1520 1081 1440 1081C1360 1081 1280 1081 1200 1081C1120 1081 1040 1081 960 1081C880 1081 800 1081 720 1081C640 1081 560 1081 480 1081C400 1081 320 1081 240 1081C160 1081 80 1081 40 1081L0 1081Z" fill="#7daeff"></path><path d="M0 731L40 749.3C80 767.7 160 804.3 240 814.7C320 825 400 809 480 791.7C560 774.3 640 755.7 720 754C800 752.3 880 767.7 960 782.7C1040 797.7 1120 812.3 1200 824.5C1280 836.7 1360 846.3 1440 836.5C1520 826.7 1600 797.3 1680 789.3C1760 781.3 1840 794.7 1880 801.3L1920 808L1920 1081L1880 1081C1840 1081 1760 1081 1680 1081C1600 1081 1520 1081 1440 1081C1360 1081 1280 1081 1200 1081C1120 1081 1040 1081 960 1081C880 1081 800 1081 720 1081C640 1081 560 1081 480 1081C400 1081 320 1081 240 1081C160 1081 80 1081 40 1081L0 1081Z" fill="#8fbaff"></path><path d="M0 937L40 924.5C80 912 160 887 240 887.8C320 888.7 400 915.3 480 925.2C560 935 640 928 720 922C800 916 880 911 960 899.2C1040 887.3 1120 868.7 1200 861.5C1280 854.3 1360 858.7 1440 876C1520 893.3 1600 923.7 1680 937.2C1760 950.7 1840 947.3 1880 945.7L1920 944L1920 1081L1880 1081C1840 1081 1760 1081 1680 1081C1600 1081 1520 1081 1440 1081C1360 1081 1280 1081 1200 1081C1120 1081 1040 1081 960 1081C880 1081 800 1081 720 1081C640 1081 560 1081 480 1081C400 1081 320 1081 240 1081C160 1081 80 1081 40 1081L0 1081Z" fill="#a1c6ff"></path><path d="M0 1017L40 1013.2C80 1009.3 160 1001.7 240 989.5C320 977.3 400 960.7 480 950.8C560 941 640 938 720 941.7C800 945.3 880 955.7 960 964.7C1040 973.7 1120 981.3 1200 985.7C1280 990 1360 991 1440 980.8C1520 970.7 1600 949.3 1680 950.8C1760 952.3 1840 976.7 1880 988.8L1920 1001L1920 1081L1880 1081C1840 1081 1760 1081 1680 1081C1600 1081 1520 1081 1440 1081C1360 1081 1280 1081 1200 1081C1120 1081 1040 1081 960 1081C880 1081 800 1081 720 1081C640 1081 560 1081 480 1081C400 1081 320 1081 240 1081C160 1081 80 1081 40 1081L0 1081Z" fill="#b4d2ff"></path></svg>